<mxfile host="Electron" agent="Mozilla/5.0 (X11; Linux x86_64) AppleWebKit/537.36 (KHTML, like Gecko) draw.io/26.0.4 Chrome/128.0.6613.186 Electron/32.2.5 Safari/537.36" version="26.0.4">
  <diagram name="Page-1" id="xPjvt0YkJ1GLezbeeXI2">
    <mxGraphModel dx="1004" dy="998" grid="1" gridSize="10" guides="1" tooltips="1" connect="1" arrows="1" fold="1" page="1" pageScale="1" pageWidth="850" pageHeight="1100" math="0" shadow="0">
      <root>
        <mxCell id="0" />
        <mxCell id="1" parent="0" />
        <mxCell id="NVmqkpXHvI-sSelcINPv-5" value="Instance" style="sketch=0;points=[[0,0,0],[0.25,0,0],[0.5,0,0],[0.75,0,0],[1,0,0],[0,1,0],[0.25,1,0],[0.5,1,0],[0.75,1,0],[1,1,0],[0,0.25,0],[0,0.5,0],[0,0.75,0],[1,0.25,0],[1,0.5,0],[1,0.75,0]];outlineConnect=0;fontColor=#232F3E;fillColor=#ED7100;strokeColor=#ffffff;dashed=0;verticalLabelPosition=bottom;verticalAlign=top;align=center;html=1;fontSize=12;fontStyle=0;aspect=fixed;shape=mxgraph.aws4.resourceIcon;resIcon=mxgraph.aws4.ec2;" vertex="1" parent="1">
          <mxGeometry x="624" y="437" width="78" height="78" as="geometry" />
        </mxCell>
        <mxCell id="NVmqkpXHvI-sSelcINPv-9" value="&amp;nbsp;launch&amp;nbsp;" style="edgeStyle=orthogonalEdgeStyle;rounded=0;orthogonalLoop=1;jettySize=auto;html=1;entryX=0;entryY=0.5;entryDx=0;entryDy=0;entryPerimeter=0;" edge="1" parent="1" source="NVmqkpXHvI-sSelcINPv-3" target="NVmqkpXHvI-sSelcINPv-5">
          <mxGeometry x="0.6171" relative="1" as="geometry">
            <mxPoint x="498" y="570" as="sourcePoint" />
            <Array as="points">
              <mxPoint x="520" y="570" />
              <mxPoint x="520" y="476" />
            </Array>
            <mxPoint as="offset" />
          </mxGeometry>
        </mxCell>
        <mxCell id="NVmqkpXHvI-sSelcINPv-16" value="&amp;nbsp;copy&amp;nbsp;" style="edgeStyle=orthogonalEdgeStyle;rounded=0;orthogonalLoop=1;jettySize=auto;html=1;" edge="1" parent="1" source="NVmqkpXHvI-sSelcINPv-15" target="NVmqkpXHvI-sSelcINPv-3">
          <mxGeometry x="-0.4385" relative="1" as="geometry">
            <mxPoint as="offset" />
          </mxGeometry>
        </mxCell>
        <mxCell id="NVmqkpXHvI-sSelcINPv-15" value="AMI #1" style="sketch=0;outlineConnect=0;fontColor=#232F3E;gradientColor=none;fillColor=#ED7100;strokeColor=none;dashed=0;verticalLabelPosition=bottom;verticalAlign=top;align=center;html=1;fontSize=12;fontStyle=0;aspect=fixed;pointerEvents=1;shape=mxgraph.aws4.ami;labelPosition=center;spacingLeft=0;" vertex="1" parent="1">
          <mxGeometry x="140" y="546" width="48" height="48" as="geometry" />
        </mxCell>
        <mxCell id="NVmqkpXHvI-sSelcINPv-17" value="Region A" style="points=[[0,0],[0.25,0],[0.5,0],[0.75,0],[1,0],[1,0.25],[1,0.5],[1,0.75],[1,1],[0.75,1],[0.5,1],[0.25,1],[0,1],[0,0.75],[0,0.5],[0,0.25]];outlineConnect=0;gradientColor=none;html=1;whiteSpace=wrap;fontSize=12;fontStyle=0;container=1;pointerEvents=0;collapsible=0;recursiveResize=0;shape=mxgraph.aws4.group;grIcon=mxgraph.aws4.group_region;strokeColor=#00A4A6;fillColor=none;verticalAlign=top;align=left;spacingLeft=30;fontColor=#147EBA;dashed=1;" vertex="1" parent="1">
          <mxGeometry x="100" y="505" width="130" height="130" as="geometry" />
        </mxCell>
        <mxCell id="NVmqkpXHvI-sSelcINPv-18" value="Region B" style="points=[[0,0],[0.25,0],[0.5,0],[0.75,0],[1,0],[1,0.25],[1,0.5],[1,0.75],[1,1],[0.75,1],[0.5,1],[0.25,1],[0,1],[0,0.75],[0,0.5],[0,0.25]];outlineConnect=0;gradientColor=none;html=1;whiteSpace=wrap;fontSize=12;fontStyle=0;container=1;pointerEvents=0;collapsible=0;recursiveResize=0;shape=mxgraph.aws4.group;grIcon=mxgraph.aws4.group_region;strokeColor=#00A4A6;fillColor=none;verticalAlign=top;align=left;spacingLeft=30;fontColor=#147EBA;dashed=1;" vertex="1" parent="1">
          <mxGeometry x="300" y="420" width="430" height="280" as="geometry" />
        </mxCell>
        <mxCell id="NVmqkpXHvI-sSelcINPv-3" value="EBS snapshot&lt;div&gt;(or template if istance store backed)&lt;/div&gt;" style="sketch=0;outlineConnect=0;fontColor=#232F3E;gradientColor=none;fillColor=#7AA116;strokeColor=none;dashed=0;verticalLabelPosition=bottom;verticalAlign=top;align=center;html=1;fontSize=12;fontStyle=0;aspect=fixed;pointerEvents=1;shape=mxgraph.aws4.snapshot;" vertex="1" parent="NVmqkpXHvI-sSelcINPv-18">
          <mxGeometry x="80" y="111" width="56" height="78" as="geometry" />
        </mxCell>
        <mxCell id="NVmqkpXHvI-sSelcINPv-6" value="AMI #2" style="sketch=0;outlineConnect=0;fontColor=#232F3E;gradientColor=none;fillColor=#ED7100;strokeColor=none;dashed=0;verticalLabelPosition=bottom;verticalAlign=top;align=center;html=1;fontSize=12;fontStyle=0;aspect=fixed;pointerEvents=1;shape=mxgraph.aws4.ami;" vertex="1" parent="NVmqkpXHvI-sSelcINPv-18">
          <mxGeometry x="324" y="200" width="48" height="48" as="geometry" />
        </mxCell>
        <mxCell id="NVmqkpXHvI-sSelcINPv-10" value="&amp;nbsp;copy&amp;nbsp;" style="edgeStyle=orthogonalEdgeStyle;rounded=0;orthogonalLoop=1;jettySize=auto;html=1;" edge="1" parent="NVmqkpXHvI-sSelcINPv-18" source="NVmqkpXHvI-sSelcINPv-3" target="NVmqkpXHvI-sSelcINPv-6">
          <mxGeometry x="0.5908" relative="1" as="geometry">
            <mxPoint x="198" y="150" as="sourcePoint" />
            <Array as="points">
              <mxPoint x="220" y="150" />
              <mxPoint x="220" y="226" />
            </Array>
            <mxPoint as="offset" />
          </mxGeometry>
        </mxCell>
      </root>
    </mxGraphModel>
  </diagram>
</mxfile>
